#!OML:ASF H:\BreakDance\Project 1\Capture day 1\Session 1\Male.ASF
:FULLY-SPECIFIED
:DEGREES
2029
root -10.1337 14.719 5.1359 557.23 -77.9626 184.636
lowerback 9.60006 5.43747 -2.02615
upperback 6.01729 6.11037 -12.5569
thorax 2.26803 2.98489 -12.9896
lowerneck -8.80136 9.83737 1.19532
upperneck -7.18709 12.9139 -2.66036
head -0.549698 6.42688 -0.712265
rclavicle -9.54166e-015 -2.8625e-014
rhumerus 58.5832 -17.3569 -4.61359
rradius 54.6701
rwrist -22.1303
rhand -6.82646 -7.66864
rfingers 7.12502
rthumb 19.0377 -36.7569
lclavicle -9.54166e-015 -2.8625e-014
lhumerus 79.5758 -11.6841 28.8336
lradius 68.0702
lwrist 20.9631
lhand -23.0099 -37.9772
lfingers 7.12502
lthumb 3.43356 -8.02508
rfemur -54.4083 -41.9467 79.9901
rtibia 57.8867
rfoot -25.4048 7.1235
rtoes -50.9025
lfemur -73.999 9.69464 -17.3688
ltibia 56.8952
lfoot -10.8352 -0.0616298
ltoes -31.2073
2030
root -10.2252 14.6029 5.10521 557.309 -79.8427 184.426
lowerback 9.74683 5.35943 -2.2659
upperback 6.0787 5.96947 -12.7106
thorax 2.21779 2.9073 -13.0357
lowerneck -8.97541 9.41336 0.802936
upperneck -7.33924 12.4032 -1.62499
head -0.669629 6.17481 -0.363411
rclavicle 3.18055e-015 1.08139e-013
rhumerus 59.8656 -15.7637 -5.14088
rradius 54.0891
rwrist -17.8612
rhand -4.38497 -6.46028
rfingers 7.12502
rthumb 21.3842 -35.3002
lclavicle 3.18055e-015 1.08139e-013
lhumerus 81.4121 -13.0736 28.6988
lradius 69.0914
lwrist 19.7645
lhand -22.1538 -38.3744
lfingers 7.12502
lthumb 4.26026 -8.43726
rfemur -54.6582 -41.8571 82.2827
rtibia 54.9864
rfoot -25.1873 6.52623
rtoes -51.2744
lfemur -75.3242 9.1272 -17.9456
ltibia 58.7303
lfoot -11.1801 -1.07664
ltoes -31.7582
2031
root -10.31 14.4894 5.07937 558.006 -81.434 183.569
lowerback 9.84883 5.34209 -2.53081
upperback 6.15602 5.91316 -12.8432
thorax 2.2223 2.87276 -13.0417
lowerneck -9.00708 8.98638 0.337166
upperneck -7.66068 11.8907 -0.893408
head -0.840411 5.9247 -0.103957
rclavicle 0 -7.79236e-014
rhumerus 61.0616 -14.358 -5.91531
rradius 53.6729
rwrist -13.2087
rhand -1.20474 -5.20379
rfingers 7.12502
rthumb 24.4359 -33.6653
lclavicle 0 -7.79236e-014
lhumerus 82.8889 -14.3035 28.6734
lradius 70.0096
lwrist 18.7769
lhand -21.2629 -38.7762
lfingers 7.12502
lthumb 5.12046 -8.85803
rfemur -54.1467 -40.6788 83.0084
rtibia 52.4691
rfoot -24.9738 6.27865
rtoes -51.3236
lfemur -76.5082 8.72119 -18.6314
ltibia 60.5155
lfoot -11.6535 -2.01148
ltoes -31.9173
2032
root -10.3874 14.3831 5.05842 559.597 -82.6999 181.795
lowerback 9.85455 5.38995 -2.85401
upperback 6.25935 5.95324 -12.9337
thorax 2.3161 2.8861 -12.9581
lowerneck -8.91184 8.58448 -0.159852
upperneck -8.14892 11.4047 -0.526169
head -1.05797 5.6901 0.0484542
rclavicle 8.74653e-014 -2.8625e-014
rhumerus 62.1896 -13.131 -6.81782
rradius 53.4041
rwrist -8.49671
rhand 2.26599 -3.73265
rfingers 7.12502
rthumb 27.7589 -31.7031
lclavicle 8.74653e-014 -2.8625e-014
lhumerus 83.8827 -15.3489 28.7613
lradius 70.8585
lwrist 18.4849
lhand -20.4023 -39.2122
lfingers 7.12502
lthumb 5.95141 -9.31577
rfemur -52.8966 -38.3998 82.1409
rtibia 50.4323
rfoot -24.8476 6.36046
rtoes -51.2187
lfemur -77.529 8.52569 -19.4437
ltibia 62.19
lfoot -12.1942 -2.87069
ltoes -31.844
2033
root -10.4573 14.2869 5.04228 561.981 -83.6883 179.176
lowerback 9.79883 5.50524 -3.13635
upperback 6.3722 6.09797 -12.9944
thorax 2.47637 2.95559 -12.8642
lowerneck -8.5848 8.19689 -0.56678
upperneck -8.81371 10.9154 -0.510158
head -1.34081 5.45425 0.0731084
rclavicle -3.97569e-014 1.27222e-013
rhumerus 63.0691 -11.9966 -7.78115
rradius 53.3611
rwrist -4.1241
rhand 5.22174 -2.1274
rfingers 7.12502
rthumb 30.5814 -29.6078
lclavicle -3.97569e-014 1.27222e-013
lhumerus 84.3824 -16.3145 28.7297
lradius 71.7097
lwrist 18.8876
lhand -19.6299 -39.535
lfingers 7.12502
lthumb 6.69714 -9.66091
rfemur -51.1652 -35.1649 79.9949
rtibia 48.9833
rfoot -24.7901 6.71122
rtoes -50.9594
lfemur -78.3735 8.53337 -20.351
ltibia 63.7183
lfoot -12.7147 -3.69047
ltoes -31.762
2034
root -10.5213 14.1964 5.03286 564.682 -84.5162 176.124
lowerback 9.73426 5.62089 -3.36669
upperback 6.52641 6.26056 -12.9535
thorax 2.68033 3.0355 -12.678
lowerneck -8.15009 7.85801 -0.908076
upperneck -9.56664 10.4624 -0.817371
head -1.6496 5.23994 -0.0118048
rclavicle 1.90833e-014 -2.22639e-014
rhumerus 63.7582 -10.8842 -8.74346
rradius 53.6166
rwrist -0.632542
rhand 6.81051 -0.733838
rfingers 7.12502
rthumb 32.0953 -27.9206
lclavicle 1.90833e-014 -2.22639e-014
lhumerus 84.2814 -17.1362 28.665
lradius 72.5615
lwrist 20.23
lhand -18.8776 -39.7122
lfingers 7.12502
lthumb 7.42328 -9.86247
rfemur -49.3733 -31.3504 77.1508
rtibia 48.2202
rfoot -24.8001 7.23285
rtoes -50.7839
lfemur -79.0027 8.6613 -21.2529
ltibia 65.1311
lfoot -13.2155 -4.50094
ltoes -31.7778
2035
root -10.5804 14.108 5.03179 567.655 -85.3183 172.624
lowerback 9.78576 5.70886 -3.38582
upperback 6.6792 6.39588 -12.8651
thorax 2.83092 3.10975 -12.5709
lowerneck -7.48203 7.53523 -1.09194
upperneck -10.3806 9.99895 -1.28109
head -2.00521 5.02142 -0.17797
rclavicle -7.79236e-014 3.49861e-014
rhumerus 64.0845 -9.61831 -9.75517
rradius 54.2171
rwrist 1.63058
rhand 6.73559 -0.151721
rfingers 7.12502
rthumb 32.024 -27.3529
lclavicle -7.79236e-014 3.49861e-014
lhumerus 83.675 -17.9875 28.4713
lradius 73.4289
lwrist 22.2085
lhand -18.0038 -39.7874
lfingers 7.12502
lthumb 8.26663 -9.96916
rfemur -47.7903 -27.3548 74.0214
rtibia 48.2278
rfoot -24.784 7.81221
rtoes -50.6497
lfemur -79.3695 8.7787 -22.0628
ltibia 66.4676
lfoot -13.7132 -5.3366
ltoes -31.7236
2036
root -10.6356 14.0212 5.03888 571.538 -86.1988 168.008
lowerback 9.99415 5.71022 -3.22045
upperback 6.82952 6.41783 -12.7194
thorax 2.8832 3.13235 -12.5137
lowerneck -6.71076 7.23618 -1.16894
upperneck -11.1369 9.54916 -1.74758
head -2.36262 4.81015 -0.3636
rclavicle -1.59028e-015 1.08139e-013
rhumerus 64.1205 -8.10399 -10.9546
rradius 55.1496
rwrist 2.57591
rhand 5.08207 -0.494151
rfingers 7.12502
rthumb 30.4482 -27.9993
lclavicle -1.59028e-015 1.08139e-013
lhumerus 82.5646 -18.9005 28.1928
lradius 74.2561
lwrist 23.9813
lhand -17.153 -39.8799
lfingers 7.12502
lthumb 9.08774 -10.0957
rfemur -46.5833 -23.5768 70.9214
rtibia 49.0408
rfoot -24.6598 8.29869
rtoes -50.4771
lfemur -79.4517 8.78075 -22.7329
ltibia 67.7542
lfoot -14.2076 -6.20884
ltoes -31.4149
2037
root -10.6884 13.937 5.05209 578.395 -87.1732 160.244
lowerback 10.3425 5.60145 -2.91151
upperback 6.97058 6.29216 -12.5454
thorax 2.83187 3.08401 -12.513
lowerneck -5.97327 6.94955 -1.18818
upperneck -11.7527 9.11901 -2.05293
head -2.68178 4.60529 -0.502699
rclavicle -8.5875e-014 -1.11319e-014
rhumerus 63.866 -6.30644 -12.5039
rradius 56.3983
rwrist 2.40373
rhand 2.34723 -1.67142
rfingers 7.12502
rthumb 27.8366 -29.6293
lclavicle -8.5875e-014 -1.11319e-014
lhumerus 81.0378 -19.8956 27.887
lradius 75.0065
lwrist 24.7082
lhand -16.4714 -40.1735
lfingers 7.12502
lthumb 9.74535 -10.419
rfemur -45.804 -20.301 68.0218
rtibia 50.6447
rfoot -24.3467 8.5361
rtoes -50.1935
lfemur -79.2846 8.64174 -23.2875
ltibia 68.9759
lfoot -14.6589 -7.14562
ltoes -30.7494
2038
root -10.7402 13.857 5.06834 594.875 -88.1038 142.754
lowerback 10.7678 5.39324 -2.57353
upperback 7.09711 6.02752 -12.3873
thorax 2.69942 2.96377 -12.5463
lowerneck -5.40747 6.66959 -1.16759
upperneck -12.2 8.71718 -2.10681
head -2.93061 4.40597 -0.556463
rclavicle -4.77083e-015 -2.54444e-014
rhumerus 63.3402 -4.27967 -14.5528
rradius 57.9364
rwrist 1.37007
rhand -0.533717 -3.1189
rfingers 7.12502
rthumb 25.0791 -31.4921
lclavicle -4.77083e-015 -2.54444e-014
lhumerus 79.2006 -20.9624 27.5889
lradius 75.6424
lwrist 23.7086
lhand -16.063 -40.7872
lfingers 7.12502
lthumb 10.1394 -11.0515
rfemur -45.4344 -17.6601 65.3532
rtibia 52.9357
rfoot -23.8188 8.51242
rtoes -49.7575
lfemur -78.9198 8.40476 -23.8241
ltibia 70.0874
lfoot -15.0596 -8.077
ltoes -29.9632
2039
root -10.7905 13.7888 5.08248 633.095 -88.5561 103.495
lowerback 11.1899 5.11947 -2.36362
upperback 7.20277 5.66174 -12.2511
thorax 2.51256 2.78306 -12.5193
lowerneck -5.03098 6.3931 -1.1445
upperneck -12.525 8.3462 -1.89514
head -3.11958 4.21225 -0.514018
rclavicle -5.08889e-014 3.18055e-014
rhumerus 62.5132 -2.07463 -17.0896
rradius 59.7835
rwrist -0.336643
rhand -3.01273 -4.42193
rfingers 7.12502
rthumb 22.7017 -33.1065
lclavicle -5.08889e-014 3.18055e-014
lhumerus 77.076 -22.075 27.44
lradius 76.2042
lwrist 20.9728
lhand -15.9881 -41.7649
lfingers 7.12502
lthumb 10.2116 -12.0327
rfemur -45.3693 -15.613 62.8282
rtibia 55.8046
rfoot -23.1327 8.24342
rtoes -49.1583
lfemur -78.3704 8.159 -24.4251
ltibia 71.0036
lfoot -15.4186 -8.96491
ltoes -29.3359
2040
root -10.8394 13.7382 5.09229 670.257 -88.0969 65.3428
lowerback 11.5144 4.80531 -2.415
upperback 7.29758 5.22683 -12.0959
thorax 2.32241 2.55266 -12.2938
lowerneck -4.8634 6.14583 -1.18224
upperneck -12.792 8.0391 -1.45989
head -3.26517 4.04348 -0.379539
rclavicle 2.54444e-014 1.27222e-014
rhumerus 61.4618 0.275211 -19.9179
rradius 61.933
rwrist -2.70222
rhand -4.886 -5.56743
rfingers 7.12502
rthumb 20.9029 -34.4612
lclavicle 2.54444e-014 1.27222e-014
lhumerus 74.5885 -23.1479 27.656
lradius 76.7409
lwrist 17.2311
lhand -16.1335 -42.9006
lfingers 7.12502
lthumb 10.0714 -13.1616
rfemur -45.5214 -14.0688 60.3894
rtibia 59.1016
rfoot -22.3703 7.89
rtoes -48.3548
lfemur -77.6704 7.97779 -25.1168
ltibia 71.6636
lfoot -15.7232 -9.8154
ltoes -28.8603
2041
root -10.8868 13.7109 5.09782 685.861 -87.2016 48.8558
lowerback 11.7267 4.51692 -2.63539
upperback 7.33529 4.81565 -11.9683
thorax 2.12706 2.32691 -11.9892
lowerneck -4.64997 5.88728 -1.11329
upperneck -13.1414 7.72777 -0.893159
head -3.44904 3.86103 -0.221461
rclavicle 2.06736e-014 -9.22361e-014
rhumerus 59.9602 2.74131 -22.9309
rradius 64.4438
rwrist -5.69331
rhand -6.13395 -6.60562
rfingers 7.12502
rthumb 19.7036 -35.627
lclavicle 2.06736e-014 -9.22361e-014
lhumerus 71.9352 -24.3772 27.8087
lradius 77.4846
lwrist 12.4106
lhand -17.2765 -43.496
lfingers 7.12502
lthumb 8.96851 -13.7067
rfemur -45.8212 -12.8924 57.9831
rtibia 62.7096
rfoot -21.6513 7.66171
rtoes -47.3143
lfemur -76.8472 7.89511 -25.8803
ltibia 72.021
lfoot -15.9458 -10.6609
ltoes -28.3989
2042
root -10.9326 13.7098 5.10109 692.14 -86.259 41.8409
lowerback 11.809 4.2364 -3.0562
upperback 7.32639 4.40867 -11.7927
thorax 1.93556 2.0947 -11.4962
lowerneck -4.43586 5.64569 -1.05479
upperneck -13.5943 7.44531 -0.284638
head -3.67278 3.68795 -0.0473962
rclavicle 3.02153e-014 2.22639e-014
rhumerus 58.1375 5.30496 -25.9664
rradius 67.35
rwrist -9.28697
rhand -6.91785 -7.53808
rfingers 7.12502
rthumb 18.9498 -36.635
lclavicle 3.02153e-014 2.22639e-014
lhumerus 69.0374 -25.7235 27.8938
lradius 78.5755
lwrist 7.20377
lhand -19.1601 -43.2608
lfingers 7.12502
lthumb 7.15061 -13.4016
rfemur -46.2323 -11.9583 55.5902
rtibia 66.5301
rfoot -21.0609 7.70167
rtoes -46.1741
lfemur -75.9286 7.89724 -26.6512
ltibia 72.0633
lfoot -16.1063 -11.4739
ltoes -28.1367
2043
root -10.9759 13.7325 5.10671 695.433 -85.3714 37.9756
lowerback 11.818 3.99013 -3.47569
upperback 7.23475 4.05393 -11.5972
thorax 1.71174 1.89147 -10.9817
lowerneck -4.10449 5.35243 -0.962731
upperneck -14.1717 7.09384 0.303912
head -3.96129 3.47446 0.114604
rclavicle -3.33958e-014 -1.27222e-014
rhumerus 55.8088 7.93165 -29.015
rradius 70.6153
rwrist -13.0814
rhand -7.3576 -8.34689
rfingers 7.12502
rthumb 18.5269 -37.4846
lclavicle -3.33958e-014 -1.27222e-014
lhumerus 66.0239 -27.3726 27.8374
lradius 80.1824
lwrist 2.66389
lhand -21.0685 -41.9999
lfingers 7.12502
lthumb 5.3082 -12.0864
rfemur -46.6915 -11.1578 53.2097
rtibia 70.4989
rfoot -20.7013 8.09275
rtoes -45.0155
lfemur -74.9695 7.904 -27.3518
ltibia 71.8182
lfoot -16.2064 -12.1806
ltoes -28.0929
